<svg xmlns="http://www.w3.org/2000/svg" viewBox="0 0 32 32"><path d="m12.594 4-.25.188L11.125 5c-4.122.183-6 3.531-6 3.531l-.375.688.594.531c.099.088.185.189.281.281-.69.888-1.625 2.5-1.625 4.656v.407l.281.281s.467.484 1.25.875c.616.308 1.488.579 2.563.688.19 2.092.629 3.53.844 4.093l-.907 3.375-.156.563.438.437S11.113 28 16 28c4.886 0 7.688-2.594 7.688-2.594l.437-.437-.156-.563-.907-3.343c.18-.485.648-1.96.844-4.125 1.075-.11 1.947-.38 2.563-.688.783-.39 1.25-.875 1.25-.875l.281-.281v-.406c0-2.158-.935-3.769-1.625-4.657.096-.092.182-.193.281-.281l.594-.531-.375-.688s-1.878-3.348-6-3.531l-1.219-.813-.25-.187h-1l-.281.531S17.27 6 16 6s-2.125-1.469-2.125-1.469L13.594 4h-1zm.156 2.313C13.318 7.063 14.25 8 16 8s2.682-.936 3.25-1.688l.125.094c-.03.179.043.261-.25.75-.419.698-1.357 1.598-3.125 2.407-1.769-.803-2.707-1.708-3.125-2.407-.293-.49-.221-.57-.25-.75l.125-.093zm-2.188.75c.03-.004.065.003.094 0 .102.341.255.714.5 1.125.347.579.85 1.202 1.594 1.812-.341.68-.84 1.12-1.438 1.438-.616.327-1.257.382-1.812.437-.557-1.034-1.31-2.007-2.188-2.906.384-.565 1.27-1.644 3.25-1.906zm10.782 0c2.042.24 2.954 1.333 3.343 1.906-.877.899-1.63 1.872-2.187 2.906-.555-.055-1.196-.11-1.813-.438-.597-.317-1.096-.756-1.437-1.437a6.986 6.986 0 0 0 1.594-1.813c.245-.41.398-.783.5-1.124zm-6.907 4.03c.369.196.753.388 1.188.563l.375.125.375-.125c.433-.175.821-.368 1.188-.562a5.469 5.469 0 0 0 2.187 2.094c.738.392 1.477.609 2.156.718.37 3.405-.653 6.139-.781 6.469C20.881 20.586 19.204 22 16 22c-3.25 0-4.956-1.48-5.156-1.656-.136-.333-1.151-2.958-.75-6.438a6.941 6.941 0 0 0 2.156-.719 5.469 5.469 0 0 0 2.188-2.093zM7 11.564c.46.617.828 1.244 1.094 1.843l.031.094c-.06.48-.11.951-.125 1.406-.665-.105-1.193-.284-1.563-.469-.283-.14-.265-.167-.375-.25A5.723 5.723 0 0 1 7 11.563zm18 0c.392.589.826 1.471.938 2.624-.11.083-.092.11-.375.25-.375.188-.914.365-1.594.47-.014-.448-.069-.906-.125-1.376l.062-.125c.266-.6.635-1.226 1.094-1.844zm-14.406 11.03A11.006 11.006 0 0 0 16 24c2.423 0 4.266-.768 5.406-1.406l.438 1.656C21.31 24.693 19.578 26 16 26c-3.578 0-5.311-1.307-5.844-1.75l.438-1.656z" font-family="Bitstream Vera Sans" overflow="visible" style="text-indent:0;text-align:start;line-height:normal;text-transform:none;block-progression:tb;-inkscape-font-specification:Bitstream Vera Sans"/></svg>